<svg xmlns="http://www.w3.org/2000/svg" version="1.1" xmlns:xlink="http://www.w3.org/1999/xlink" xmlns:svgjs="http://svgjs.dev/svgjs" width="100%" height="100%" viewBox="0 0 1000 600"><rect width="1000" height="600" x="0" y="0" fill="#264653"/><g><rect width="333.3333333333333" height="333.3333333333333" rx="13.333333333333334" ry="13.333333333333334" y="211.88102449898508" fill="#ffffff" transform="matrix(0.6590783570625897,0,0,0.6590783570625897,0,50.50741911590589)" x="189.65882873535156"/><path d="M452.01100719937006 303.5476904852036L452.01100719937006 321.49717958032284L424.9514759001953 321.49717958032284L424.9514759001953 453.3372292990797L413.9172003593096 453.5476923202955L309.79813714926286 335.14720981346204L309.79813714926286 434.06482978488964L336.40667626011805 434.06482978488964L336.40667626011805 452.0443850258969L260.6399886224288 452.0443850258969L260.6399886224288 434.06482978488964L288.5714381523547 434.06482978488964L288.5714381523547 321.49717958032284L260.6399886224288 321.49717958032284L260.6399886224288 303.5476904852036L309.79813714926286 303.5476904852036L404.1757690916067 413.2891229763011L404.1757690916067 321.49717958032284L376.2443195616808 321.49717958032284L376.2443195616808 303.5476904852036L452.01100719937006 303.5476904852036Z " fill="#264653" transform="matrix(0.6590783570625897,0,0,0.6590783570625897,0,50.50741911590589)"/><path d="M753.0070236085163 303.54769091373936L753.0070236085163 317.30556540110825L732.2665093059501 317.30556540110825L732.2665093059501 418.35796008638897L723.8089884736816 418.51927519763115L644.0040984405853 327.76800261595827L644.0040984405853 403.58610489978355L664.3989375047753 403.58610489978355L664.3989375047753 417.3670244030442L606.32549745759 417.3670244030442L606.32549745759 403.58610489978355L627.7343172210167 403.58610489978355L627.7343172210167 317.30556540110825L606.32549745759 317.30556540110825L606.32549745759 303.54769091373936L644.0040984405853 303.54769091373936L716.3424033247576 387.66199891859105L716.3424033247576 317.30556540110825L694.933583561331 317.30556540110825L694.933583561331 303.54769091373936L753.0070236085163 303.54769091373936ZM803.4525633955355 419.69457100810985Q791.9991904973407 419.69457100810985 782.0437436321089 414.5555324642519Q772.0882967668771 409.39344890450207 766.1887726985916 399.9449923888885Q760.3122936461979 390.4965358732751 760.3122936461979 378.3748575142198L760.3122936461979 378.3748575142198Q760.3122936461979 366.0918640439222 766.1887726985916 356.712542575984Q772.0882967668771 347.3562661239374 782.0437436321089 342.1941825641877Q791.9991904973407 337.05514402032964 803.4525633955355 337.05514402032964L803.4525633955355 337.05514402032964Q814.7215761665965 337.05514402032964 824.6078879841531 342.1941825641877Q834.4711547858179 347.3562661239374 840.4398139017786 356.80472263955096Q846.431518033631 366.2531791551644 846.431518033631 378.3748575142198L846.431518033631 378.3748575142198Q846.431518033631 390.4965358732751 840.6241740289125 399.9449923888885Q834.816830024194 409.39344890450207 824.9305182066374 414.5555324642519Q815.0672514049726 419.69457100810985 803.4525633955355 419.69457100810985L803.4525633955355 419.69457100810985ZM803.4525633955355 406.58195696570976Q810.9191485444595 406.58195696570976 816.8878076604202 403.1021595660569Q822.8564667763809 399.6223621664042 826.2671291283583 393.21584774850044Q829.6547464644442 386.83237834648844 829.6547464644442 378.3748575142198L829.6547464644442 378.3748575142198Q829.6547464644442 369.91733668195104 826.2671291283583 363.53386727993905Q822.8564667763809 357.1273528620353 816.8878076604202 353.64755546238257Q810.9191485444595 350.1677580627297 803.4525633955355 350.1677580627297L803.4525633955355 350.1677580627297Q791.9991904973407 350.1677580627297 784.6247854119839 357.8878383864627Q777.2273353107352 365.6079187101957 777.2273353107352 378.3748575142198L777.2273353107352 378.3748575142198Q777.2273353107352 391.1417963182438 784.6247854119839 398.8618766419768Q791.9991904973407 406.58195696570976 803.4525633955355 406.58195696570976L803.4525633955355 406.58195696570976ZM918.9311380290457 399.6223621664042L924.577166922522 411.88231062081Q918.4241476794274 415.54646814759667 912.5476686270337 417.52833951428636Q906.6481445587482 419.5332558968677 899.020244298582 419.5332558968677L899.020244298582 419.5332558968677Q886.253305494558 419.5332558968677 878.6945402820674 411.4675003347586Q871.1357750695764 403.4247897885414 871.1357750695764 388.49161949069367L871.1357750695764 388.49161949069367L871.1357750695764 352.3339895565533L853.7137430554209 352.3339895565533L853.7137430554209 339.2213755141531L871.1357750695764 339.2213755141531L871.1357750695764 317.48992552824217L887.405556289145 317.48992552824217L887.405556289145 339.2213755141531L913.2851091355693 339.2213755141531L913.2851091355693 352.3339895565533L887.405556289145 352.3339895565533L887.405556289145 388.65293460193584Q887.405556289145 397.1335004500962 891.231028927174 401.0972431834756Q895.0334565493112 405.0840309327466 901.5091060148901 405.0840309327466L901.5091060148901 405.0840309327466Q906.1641992250217 405.0840309327466 910.312302085535 403.6782849633505Q914.460404946048 402.2725389939543 918.9311380290457 399.6223621664042L918.9311380290457 399.6223621664042ZM1002.0545103505525 395.1285840675149L1009.03715016575 405.75233639360704Q993.0899991686655 419.69457100810985 972.6951601044756 419.69457100810985L972.6951601044756 419.69457100810985Q961.5644174287651 419.69457100810985 951.6089705635333 415.0394777979784Q941.6535236983015 410.4074296037386 935.5235494710986 401.4429184218517Q929.3935752438957 392.4784072399648 929.3935752438957 380.1954137696672L929.3935752438957 380.1954137696672Q929.3935752438957 367.082799727267 935.6848645823408 357.3117129891692Q941.9991989366775 347.5175812351796 952.1159609131515 342.28636262775467Q962.2327228896255 337.05514402032964 973.363465565336 337.05514402032964L973.363465565336 337.05514402032964Q983.1345523034339 337.05514402032964 990.8546326271668 340.212311197498Q998.5747129508999 343.3694783746664 1002.9763109862221 349.01550726814276Q1007.3779090215445 354.63849114572736 1007.3779090215445 361.94376118340904L1007.3779090215445 361.94376118340904Q1007.3779090215445 372.89014373198563 997.9985875536064 378.9509829115133Q988.6192660856681 385.0118220910409 975.5066520432678 385.0118220910409L975.5066520432678 385.0118220910409Q967.0491312109992 385.0118220910409 959.7438611733174 383.26040088326863Q952.4385911356359 381.5320246913882 944.9720059867121 378.2135424029776L944.9720059867121 378.2135424029776L944.9720059867121 379.7114684359407Q944.9720059867121 387.5006838073489 948.7052985611739 393.46934292330957Q952.4385911356359 399.43800203927026 958.7529254899729 402.59516921643865Q965.0672598443094 405.75233639360704 972.5338449932334 405.75233639360704L972.5338449932334 405.75233639360704Q989.4488866577707 405.75233639360704 1002.0545103505525 395.1285840675149L1002.0545103505525 395.1285840675149ZM974.515716359923 350.00644295148754Q965.551205178036 350.00644295148754 957.8311248543031 355.1454814953456Q950.134089546462 360.2845200392037 946.8156072580513 369.08771610984843L946.8156072580513 369.08771610984843Q959.4212309508333 373.55844919284607 972.0268546436151 373.55844919284607L972.0268546436151 373.55844919284607Q980.3230603646415 373.55844919284607 985.7155940833087 370.49346207924464Q991.1081278019759 367.4284749656432 991.1081278019759 361.94376118340904L991.1081278019759 361.94376118340904Q991.1081278019759 356.6434075283088 986.4530345918444 353.3249252398982Q981.8209863976048 350.00644295148754 974.515716359923 350.00644295148754L974.515716359923 350.00644295148754ZM1082.5277058445095 337.05514402032964Q1092.3218375984989 337.05514402032964 1100.6180433195254 342.1941825641877Q1108.914249040552 347.3562661239374 1113.8919724731677 356.5512274647418Q1118.8696959057834 365.76923382143787 1118.8696959057834 377.54523694211707L1118.8696959057834 377.54523694211707Q1118.8696959057834 389.6669153011725 1113.4771621871164 399.2766869280281Q1108.084628468449 408.90950357077554 1098.7974870640778 414.30203728944275Q1089.5103456597067 419.69457100810985 1078.218287872754 419.69457100810985L1078.218287872754 419.69457100810985Q1063.4464326861485 419.69457100810985 1051.0021241046088 408.40251322115716L1051.0021241046088 408.40251322115716L1051.0021241046088 440.4350853106761L1069.0924615796248 440.4350853106761L1069.0924615796248 453.54769935307627L1017.6559861092607 453.54769935307627L1017.6559861092607 440.4350853106761L1035.0780181234163 440.4350853106761L1035.0780181234163 352.3339895565533L1017.6559861092607 352.3339895565533L1017.6559861092607 339.2213755141531L1051.0021241046088 339.2213755141531L1051.0021241046088 354.315860923243Q1057.4777735701878 346.3422854247009 1065.7739792912143 341.7102372304611Q1074.0701850122405 337.05514402032964 1082.5277058445095 337.05514402032964L1082.5277058445095 337.05514402032964ZM1074.7384904731011 405.75233639360704Q1082.5277058445095 405.75233639360704 1088.749860135279 402.18035893038734Q1094.972014426049 398.60838146716765 1098.451811825702 392.15577701748043Q1101.9546542412463 385.68012755190136 1101.9546542412463 377.3839218308749L1101.9546542412463 377.3839218308749Q1101.9546542412463 365.6079187101957 1095.225509600858 358.21046860894705Q1088.4963649604701 350.83606352359027 1078.0569727615116 350.83606352359027L1078.0569727615116 350.83606352359027Q1070.9130178350724 350.83606352359027 1063.9534230357667 355.1454814953456Q1056.9707832205695 359.4548994671011 1051.0021241046088 367.082799727267L1051.0021241046088 367.082799727267L1051.0021241046088 396.1195197508597Q1062.9624873524217 405.75233639360704 1074.7384904731011 405.75233639360704L1074.7384904731011 405.75233639360704ZM1218.4241645581014 403.58610489978355L1221.742646846512 415.3851530363545Q1216.2579330642775 418.70363532476506 1208.975708042488 418.70363532476506L1208.975708042488 418.70363532476506Q1202.8226887993928 418.70363532476506 1198.6054508912048 415.13165786154536Q1194.3651679671243 411.55968039832555 1192.705926822919 404.9227158215044L1192.705926822919 404.9227158215044Q1176.1135153808664 419.69457100810985 1159.8437341612976 419.69457100810985L1159.8437341612976 419.69457100810985Q1148.4134062789944 419.69457100810985 1140.4398307804522 413.2189215425309Q1132.4662552819104 406.74327207695194 1132.4662552819104 395.1285840675149L1132.4662552819104 395.1285840675149Q1132.4662552819104 387.17805358486453 1136.9600333807994 381.27852951657906Q1141.4307664637972 375.37900544829347 1148.9895316762882 372.31401833469204Q1156.525251872887 369.2490312210906 1165.3284479435315 369.2490312210906L1165.3284479435315 369.2490312210906Q1172.7950330924555 369.2490312210906 1179.1093674467925 370.6547771904868Q1185.4006567852375 372.0605231598829 1192.0376213620584 374.73374500332477L1192.0376213620584 374.73374500332477L1192.0376213620584 367.4284749656432Q1192.0376213620584 358.97095413337456 1186.391592468582 354.98416638410345Q1180.7686085909977 350.99737863483244 1171.6427822978685 350.99737863483244L1171.6427822978685 350.99737863483244Q1158.6914833667106 350.99737863483244 1140.4398307804522 358.14133356127184L1140.4398307804522 358.14133356127184L1137.1213484920418 345.5126648525983Q1156.709612000021 337.2164591315718 1173.624653664558 337.2164591315718L1173.624653664558 337.2164591315718Q1189.710074756993 337.2164591315718 1198.6054508912048 345.09785456654697Q1207.4777820095246 352.979250001522 1207.4777820095246 368.09678042650364L1207.4777820095246 368.09678042650364L1207.4777820095246 396.78782521172013Q1207.4777820095246 404.9227158215044 1213.2851260142434 404.9227158215044L1213.2851260142434 404.9227158215044Q1215.7739877305512 404.9227158215044 1218.4241645581014 403.58610489978355L1218.4241645581014 403.58610489978355ZM1148.5747213902364 394.2989634954122Q1148.5747213902364 399.9449923888885 1153.0454544732343 403.00997950248995Q1157.5392325721236 406.0749666160915 1163.9918370218106 406.0749666160915L1163.9918370218106 406.0749666160915Q1169.637865915287 406.0749666160915 1176.943135952969 403.1021595660569Q1184.2484059906506 400.1063075001307 1192.0376213620584 394.2989634954122L1192.0376213620584 394.2989634954122L1192.0376213620584 385.5188124406592Q1180.7686085909977 381.5320246913882 1168.1399398823241 381.1863494530121L1168.1399398823241 381.1863494530121Q1160.0280942884315 381.1863494530121 1154.2898853313882 384.5970118049896Q1148.5747213902364 388.00767415696714 1148.5747213902364 394.2989634954122L1148.5747213902364 394.2989634954122ZM1324.1086074376217 403.93178013815964L1327.611449853166 415.869098370081Q1325.2839032481006 417.205709291802 1321.9654209596902 418.10446491157984Q1318.6469386712793 419.0262655472494 1314.982781144493 419.0262655472494L1314.982781144493 419.0262655472494Q1308.8528069172899 419.0262655472494 1304.382073834292 415.7999633224058Q1299.888295735403 412.55061608167046 1298.2290545911974 406.4206418544676L1298.2290545911974 406.4206418544676Q1291.5920900143765 412.3893009704283 1284.2176849290195 416.0304134813232Q1276.820234827771 419.69457100810985 1267.8787686617757 419.69457100810985L1267.8787686617757 419.69457100810985Q1257.73896166941 419.69457100810985 1249.027945662332 414.5555324642519Q1240.3169296552542 409.39344890450207 1235.1778911113965 400.19848756369765Q1230.0388525675385 390.9804812070016 1230.0388525675385 379.3657931975646L1230.0388525675385 379.3657931975646Q1230.0388525675385 367.26715985440103 1235.4313862862055 357.5421631480866Q1240.823920004873 347.84021145766394 1250.111061409244 342.44767773899684Q1259.3982028136152 337.05514402032964 1270.6902606005679 337.05514402032964L1270.6902606005679 337.05514402032964Q1285.1164405487975 337.05514402032964 1297.2381189078528 347.6788963464219L1297.2381189078528 347.6788963464219L1297.2381189078528 316.6603049561395L1279.6547717824546 316.6603049561395L1279.6547717824546 303.54769091373936L1313.1622248890453 303.54769091373936L1313.1622248890453 397.2948155613384Q1313.1622248890453 405.2453460439888 1318.6469386712793 405.2453460439888L1318.6469386712793 405.2453460439888Q1322.288051182174 405.2453460439888 1324.1086074376217 403.93178013815964L1324.1086074376217 403.93178013815964ZM1246.9538942320755 379.2044780863224Q1246.9538942320755 391.1417963182438 1253.6830388724638 398.4470663559255Q1260.4121835128522 405.75233639360704 1271.1972509501861 405.75233639360704L1271.1972509501861 405.75233639360704Q1283.6415595317258 405.75233639360704 1297.2381189078528 394.46027860665436L1297.2381189078528 394.46027860665436L1297.2381189078528 360.1232049279615Q1285.6234308984158 350.83606352359027 1274.331373111463 350.83606352359027L1274.331373111463 350.83606352359027Q1266.5421577400548 350.83606352359027 1260.2278233857178 354.4771760344852Q1253.9365340472727 358.14133356127184 1250.4567366476203 364.59393801095916Q1246.9538942320755 371.0695874765381 1246.9538942320755 379.2044780863224L1246.9538942320755 379.2044780863224Z " fill="#ffffff" transform="matrix(0.6590783570625897,0,0,0.6590783570625897,0,50.50741911590589)"/></g></svg>